#N canvas 735 22 580 607 10;
#X obj 3 180 cnv 15 552 21 empty \$0-pddp.cnv.footer empty 20 12 0
14 -228856 -66577 0;
#X obj 3 -415 cnv 15 552 40 empty \$0-pddp.cnv.header ctlout 3 12 0
18 -204280 -1 0;
#X obj 3 -62 cnv 3 550 3 empty \$0-pddp.cnv.inlets inlets 8 12 0 13
-228856 -1 0;
#N canvas 483 269 494 362 META 0;
#X text 12 125 LIBRARY internal;
#X text 12 165 WEBSITE http://crca.ucsd.edu/~msp/;
#X text 12 25 LICENSE SIBSD;
#X text 12 145 AUTHOR Miller Puckette;
#X text 12 205 HELP_PATCH_AUTHORS This help patch was updated for Pd
version 0.35 by Michal Seta as part of a project called pddp proposed
by Krzysztof Czaja \, managed and edited by Dave Sabine \, to build
comprehensive documentation for Pd. Jonathan Wilkes revised the patch
to conform to the PDDP template for Pd version 0.42.;
#X text 12 5 KEYWORDS control MIDI;
#X text 12 45 DESCRIPTION send MIDI control messages to the MIDI port
;
#X text 12 65 INLET_0 float list;
#X text 12 85 OUTLET_0 float;
#X text 12 105 OUTLET_1 float;
#X text 12 185 RELEASE_DATE 1997;
#X restore 503 182 pd META;
#X obj 3 56 cnv 3 550 3 empty \$0-pddp.cnv.outlets outlets 8 12 0 13
-228856 -1 0;
#X obj 3 84 cnv 3 550 3 empty \$0-pddp.cnv.argument arguments 8 12
0 13 -228856 -1 0;
#X obj 3 152 cnv 3 550 3 empty \$0-pddp.cnv.more_info more_info 8 12
0 13 -228856 -1 0;
#X text 101 -54 float;
#N canvas 208 216 441 412 Related_objects 0;
#X obj 1 1 cnv 15 425 20 empty \$0-pddp.cnv.subheading empty 3 12 0
14 -204280 -1 0;
#X text 7 1 [ctlout] Related Objects;
#X obj 23 32 ctlin;
#X obj 216 79 pgmin;
#X obj 23 79 bendin;
#X obj 78 106 touchin;
#X obj 260 79 polytouchin;
#X obj 117 79 midiin;
#X obj 22 106 sysexin;
#X obj 178 166 noteout;
#X obj 75 166 ctlout;
#X obj 23 166 bendout;
#X obj 365 166 touchout;
#X obj 279 166 polytouchout;
#X obj 122 166 midiout;
#X obj 230 166 pgmout;
#X obj 23 220 makenote;
#X text 20 197 MIDI note construction:;
#X text 20 139 MIDI output:;
#X text 20 56 MIDI input:;
#X obj 183 220 stripnote;
#X obj 167 79 notein;
#X text 180 197 MIDI note deconstruction:;
#X text 19 263 Additional useful objects for MIDI processing (Maxlib
by Olaf Matthes);
#X text 18 342 Also \, from cyclone (alpha) by Krzysztof Czaja:;
#X text 19 244 Externals;
#X obj 19 293 pddp/helplink maxlib/pitch;
#X obj 19 308 pddp/helplink maxlib/score;
#X obj 19 323 pddp/helplink maxlib/chord;
#X obj 19 358 pddp/helplink cyclone/midiformat;
#X obj 19 373 pddp/helplink cyclone/midiparse;
#X obj 19 388 pddp/helplink cyclone/midiflush;
#X restore 104 182 pd Related_objects;
#X text 101 60 (none);
#X obj 81 -53 cnv 17 3 45 empty \$0-pddp.cnv.let.1 0 5 9 0 16 -228856
-162280 0;
#X text 101 2 float;
#X obj 81 3 cnv 17 3 17 empty \$0-pddp.cnv.let.1 1 5 9 0 16 -228856
-162280 0;
#X text 101 27 float;
#X obj 81 28 cnv 17 3 17 empty \$0-pddp.cnv.let.2 2 5 9 0 16 -228856
-162280 0;
#X obj 365 156 pddp/pddplink all_about_midi_flags.pd -text all_about_midi_flags
;
#X text 103 156 for an explanation of MIDI usage in Pd see:;
#X obj 502 -403 ctlout;
#X floatatom 45 -301 5 0 0 0 - - -, f 5;
#X obj 45 -235 ctlout;
#X floatatom 61 -280 5 0 0 0 - - -, f 5;
#X floatatom 78 -259 5 0 0 0 - - -, f 5;
#X text 134 -305 The [ctlout] objects sends control messages to the
MIDI port. See a MIDI specification chart for various controller numbers/values
descriptions.;
#X text 101 -34 list;
#X obj 132 -179 ctlout;
#X obj 224 -179 ctlout 64;
#X obj 326 -179 ctlout 64 2;
#X obj 425 -190 ctlout;
#X msg 148 -203 64;
#X msg 179 -202 2;
#X msg 425 -212 67 64 2;
#X floatatom 326 -223 5 0 0 0 - - -, f 5;
#X floatatom 224 -224 5 0 0 0 - - -, f 5;
#X floatatom 132 -224 5 0 0 0 - - -, f 5;
#X msg 275 -202 2;
#X text 131 -156 All these examples will transmit control no 64 on
channel 2 (remember to click the message boxes to initialize).;
#X text 14 -392 send MIDI control messages to the MIDI port;
#X text 171 118 - (optional) channel number to transmit on. If the
second argument is left off \, [ctlout] transmits on channel 1 .;
#X text 171 -54 - (int) control value (0-127).;
#X text 171 2 - (int) controller number.;
#X text 171 27 - (int) channel number.;
#X text 171 60 - [ctlin] transmits directly to the MIDI port.;
#X text 171 103 - (optional) controller number to transmit to.;
#X text 83 103 1) float;
#X text 83 118 2) float;
#X text 171 -34 - a list to the left inlet is distributed among the
inlets of [ctlout].;
#X obj 7 182 pddp/pddplink all_about_help_patches.pd -text Usage Guide
;
#X connect 18 0 19 0;
#X connect 20 0 19 1;
#X connect 21 0 19 2;
#X connect 28 0 24 1;
#X connect 29 0 24 2;
#X connect 30 0 27 0;
#X connect 31 0 26 0;
#X connect 32 0 25 0;
#X connect 33 0 24 0;
#X connect 34 0 25 2;
