#N canvas 735 22 463 402 10;
#X floatatom 26 285 8 0 0 0 - - -, f 8;
#X floatatom 26 81 5 0 0 0 - - -, f 5;
#X text 212 56 written by <olaf.matthes@gmx.de>;
#X text 36 314 creation:;
#X text 140 19 scale :: scale input from a certain input range;
#X text 211 37 to lie between output boundaries;
#X floatatom 55 139 5 0 0 0 - - -, f 5;
#X floatatom 84 160 5 0 0 0 - - -, f 5;
#X floatatom 114 181 5 0 0 0 - - -, f 5;
#X floatatom 143 202 5 0 0 0 - - -, f 5;
#X text 83 79 input value;
#X text 105 286 scaled output value;
#X text 110 138 in low;
#X text 136 159 in high;
#X text 170 180 out low;
#X text 199 202 out high;
#X text 56 112 creation arguments can be changed dynamically:;
#X text 52 331 scale <in low> <in high> <out low> <out high> <log coeff>
;
#X floatatom 173 228 5 0 0 0 - - -, f 5;
#X text 226 227 log coefficient;
#X text 264 245 0 = linear 1 = log;
#X obj 26 257 maxlib/scale 0 9 100 255 0;
#X connect 1 0 21 0;
#X connect 6 0 21 1;
#X connect 7 0 21 2;
#X connect 8 0 21 3;
#X connect 9 0 21 4;
#X connect 18 0 21 5;
#X connect 21 0 0 0;
