#N canvas 735 22 614 616 10;
#X obj 9 138 cnv 15 552 21 empty \$0-pddp.cnv.footer empty 20 12 0
14 -228856 -66577 0;
#X obj 9 -457 cnv 15 552 40 empty \$0-pddp.cnv.header unpack 3 12 0
18 -204280 -1 0;
#X obj 9 -266 cnv 3 550 3 empty \$0-pddp.cnv.inlets inlets 8 12 0 13
-228856 -1 0;
#N canvas 488 264 494 361 META 0;
#X text 12 105 LIBRARY internal;
#X text 12 145 WEBSITE http://crca.ucsd.edu/~msp/;
#X text 12 25 LICENSE SIBSD;
#X text 12 125 AUTHOR Miller Puckette;
#X text 12 185 HELP_PATCH_AUTHORS This help patch was updated for Pd
version 0.35 test 26 by Dave Sabine as part of a project called pddp
proposed by Krzysztof Czaja to build comprehensive documentation for
Pd. Jonathan Wilkes revised the patch to conform to the PDDP template
for Pd version 0.42.;
#X text 12 45 DESCRIPTION split a message into atoms;
#X text 12 5 KEYWORDS control list_op;
#X text 12 65 INLET_0 anything;
#X text 12 85 OUTLET_N float list symbol pointer bang;
#X text 12 165 RELEASE_DATE 1997;
#X restore 509 140 pd META;
#X obj 9 -66 cnv 3 550 3 empty \$0-pddp.cnv.outlets outlets 8 12 0
13 -228856 -1 0;
#X obj 9 -13 cnv 3 550 3 empty \$0-pddp.cnv.argument arguments 8 12
0 13 -228856 -1 0;
#X obj 9 89 cnv 3 550 3 empty \$0-pddp.cnv.more_info more_info 8 12
0 13 -228856 -1 0;
#N canvas 220 221 428 404 Related_objects 0;
#X obj 1 1 cnv 15 425 20 empty \$0-pddp.cnv.subheading empty 3 12 0
14 -204280 -1 0;
#X obj 22 43 pack;
#X obj 59 43 trigger;
#X text 8 2 [unpack] Related Objects;
#X text 19 266 These objects are offered in Pd only if you have downloaded
and properly installed the appropriate library. These objects may or
may not exist in a single library.;
#X text 19 315 The best places to find information about Pd's libraries
is:;
#X text 19 335 www.puredata.org and click on "Downloads" then "Software"
;
#X text 19 355 or;
#X text 19 375 iem.kug.ac.at/pdb/;
#X text 19 79 Externals;
#X obj 20 103 pddp/helplink zexy/pack~;
#X obj 20 123 pddp/helplink zexy/unpack~;
#X obj 20 143 pddp/helplink zexy/tabdump;
#X obj 20 163 pddp/helplink zexy/niagara;
#X obj 20 183 pddp/helplink zexy/packel;
#X obj 20 203 pddp/helplink zexy/repack;
#X obj 20 223 pddp/helplink zexy/drip;
#X obj 20 243 pddp/helplink zexy/sort;
#X restore 111 140 pd Related_objects;
#X obj 87 -257 cnv 17 3 185 empty \$0-pddp.cnv.let.0 0 5 9 0 16 -228856
-162280 0;
#X text 107 -190 float;
#X obj 87 -57 cnv 17 3 37 empty \$0-pddp.cnv.let.n n 5 9 0 16 -228856
-162280 0;
#X obj 509 -446 unpack;
#X floatatom 106 -295 0 0 0 0 - - -;
#X floatatom 211 -295 0 0 0 0 - - -;
#X floatatom 249 -295 0 0 0 0 - - -;
#X floatatom 62 -295 0 0 0 0 - - -;
#X msg 112 -366 1 2;
#X msg 151 -366 3 4 shut;
#X msg 230 -366 5 6 pick 7 8;
#X symbolatom 138 -295 10 0 0 0 - - -, f 10;
#X text 20 -434 split a message into atoms;
#X text 107 -160 symbol;
#X text 107 -258 list;
#X text 107 -117 pointer;
#X text 107 -89 bang;
#X text 177 -58 - if no arguments are provided \, [unpack] defaults
to two outlets. Otherwise \, one outlet is created for each creation
argument specified.;
#X obj 382 -329 unpack;
#X msg 382 -366 60 127;
#X floatatom 382 -295 3 0 0 0 - - -, f 3;
#X floatatom 415 -295 3 0 0 0 - - -, f 3;
#X text 177 -258 - the elements will be distributed to the outlets.
The type of each element must match the arguments supplied to [unpack]
\, or a "type mismatch" error will result. Lists with more (or fewer)
elements than the total number of outlets are accepted.;
#X text 109 -397 [unpack] takes a list and distributes the elements
to its outlets.;
#X text 89 6 1) float;
#X text 107 20 symbol atom;
#X text 106 93 [unpack] only checks the first letter of each symbol
atom in its arguments \, so both "f" and "float" will specify float
type (so will "foo" \, for that matter).;
#X text 177 -190 - if no arguments are given \, or if the first argument
is an "f" \, a float will be accepted and sent to the left outlet.
;
#X obj 112 -329 unpack 0 0 s f f;
#X text 177 -160 - if the first argument to [unpack] is "s" \, a symbol
message will be sent to the left outlet. Symbol atoms are also accepted
and given the "symbol" selector when output.;
#X text 177 -117 - if the first argument to [unpack] is "p" \, a pointer
will be accepted and sent to the left outlet;
#X text 177 -89 - a bang to the inlet has no apparent effect.;
#X text 177 6 - one outlet is created for each argument specified.
(If no arguments are provided \, [unpack] will accept a list with two
floats.) Each symbolic argument specifies the type of atom expected
in the incoming list. Acceptable arguments are: "f" for float \, "p"
for pointer \, and "s" for symbol. You can also use a float (e.g. \,
"o") to specify float.;
#X obj 13 140 pddp/pddplink all_about_help_patches.pd -text Usage Guide
;
#X connect 16 0 36 0;
#X connect 17 0 36 0;
#X connect 18 0 36 0;
#X connect 26 0 28 0;
#X connect 26 1 29 0;
#X connect 27 0 26 0;
#X connect 36 0 15 0;
#X connect 36 1 12 0;
#X connect 36 2 19 0;
#X connect 36 3 13 0;
#X connect 36 4 14 0;
